<mxfile host="app.diagrams.net" modified="2020-10-11T15:57:57.253Z" agent="5.0 (X11; Linux x86_64) AppleWebKit/537.36 (KHTML, like Gecko) Chrome/86.0.4240.75 Safari/537.36" etag="7NQ4DfDlQlW9fh-mRypN" version="13.7.9" type="github">
  <diagram id="JBG_he1mS2skE4jO6BCE" name="Page-1">
    <mxGraphModel dx="802" dy="494" grid="1" gridSize="10" guides="1" tooltips="1" connect="1" arrows="1" fold="1" page="1" pageScale="1" pageWidth="827" pageHeight="1169" math="0" shadow="0">
      <root>
        <mxCell id="0" />
        <mxCell id="1" parent="0" />
        <mxCell id="Y7ZEs3ahHHyJpvBGkON9-1" value="Tạo sản phẩm" style="shape=table;html=1;whiteSpace=wrap;startSize=40;container=1;collapsible=0;childLayout=tableLayout;fixedRows=1;rowLines=0;fontStyle=1;align=center;fontSize=12;" vertex="1" parent="1">
          <mxGeometry x="40" y="40" width="760" height="560" as="geometry" />
        </mxCell>
        <mxCell id="Y7ZEs3ahHHyJpvBGkON9-2" value="" style="shape=partialRectangle;html=1;whiteSpace=wrap;collapsible=0;dropTarget=0;pointerEvents=0;fillColor=none;top=0;left=0;bottom=1;right=0;points=[[0,0.5],[1,0.5]];portConstraint=eastwest;" vertex="1" parent="Y7ZEs3ahHHyJpvBGkON9-1">
          <mxGeometry y="40" width="760" height="40" as="geometry" />
        </mxCell>
        <mxCell id="Y7ZEs3ahHHyJpvBGkON9-3" value="Basic Course of Events" style="shape=partialRectangle;html=1;whiteSpace=wrap;connectable=0;fillColor=none;top=0;left=0;bottom=0;right=0;overflow=hidden;" vertex="1" parent="Y7ZEs3ahHHyJpvBGkON9-2">
          <mxGeometry width="160" height="40" as="geometry" />
        </mxCell>
        <mxCell id="Y7ZEs3ahHHyJpvBGkON9-4" value="Actor Actions" style="shape=partialRectangle;html=1;whiteSpace=wrap;connectable=0;fillColor=none;top=0;left=0;bottom=0;right=0;align=left;spacingLeft=6;overflow=hidden;" vertex="1" parent="Y7ZEs3ahHHyJpvBGkON9-2">
          <mxGeometry x="160" width="267" height="40" as="geometry" />
        </mxCell>
        <mxCell id="Y7ZEs3ahHHyJpvBGkON9-11" value="System Response" style="shape=partialRectangle;html=1;whiteSpace=wrap;connectable=0;fillColor=none;top=0;left=0;bottom=0;right=0;align=left;spacingLeft=6;overflow=hidden;" vertex="1" parent="Y7ZEs3ahHHyJpvBGkON9-2">
          <mxGeometry x="427" width="333" height="40" as="geometry" />
        </mxCell>
        <mxCell id="Y7ZEs3ahHHyJpvBGkON9-5" value="" style="shape=partialRectangle;html=1;whiteSpace=wrap;collapsible=0;dropTarget=0;pointerEvents=0;fillColor=none;top=0;left=0;bottom=0;right=0;points=[[0,0.5],[1,0.5]];portConstraint=eastwest;" vertex="1" parent="Y7ZEs3ahHHyJpvBGkON9-1">
          <mxGeometry y="80" width="760" height="80" as="geometry" />
        </mxCell>
        <mxCell id="Y7ZEs3ahHHyJpvBGkON9-6" value="" style="shape=partialRectangle;html=1;whiteSpace=wrap;connectable=0;fillColor=none;top=0;left=0;bottom=0;right=0;overflow=hidden;" vertex="1" parent="Y7ZEs3ahHHyJpvBGkON9-5">
          <mxGeometry width="160" height="80" as="geometry" />
        </mxCell>
        <mxCell id="Y7ZEs3ahHHyJpvBGkON9-7" value="Người dùng nhấp vào nút tạo sản phẩm" style="shape=partialRectangle;html=1;whiteSpace=wrap;connectable=0;fillColor=none;top=0;left=0;bottom=0;right=0;align=left;spacingLeft=6;overflow=hidden;" vertex="1" parent="Y7ZEs3ahHHyJpvBGkON9-5">
          <mxGeometry x="160" width="267" height="80" as="geometry" />
        </mxCell>
        <mxCell id="Y7ZEs3ahHHyJpvBGkON9-12" value="Hệ thống hiển thị form tạo sản phẩm" style="shape=partialRectangle;html=1;whiteSpace=wrap;connectable=0;fillColor=none;top=0;left=0;bottom=0;right=0;align=left;spacingLeft=6;overflow=hidden;" vertex="1" parent="Y7ZEs3ahHHyJpvBGkON9-5">
          <mxGeometry x="427" width="333" height="80" as="geometry" />
        </mxCell>
        <mxCell id="Y7ZEs3ahHHyJpvBGkON9-8" value="" style="shape=partialRectangle;html=1;whiteSpace=wrap;collapsible=0;dropTarget=0;pointerEvents=0;fillColor=none;top=0;left=0;bottom=0;right=0;points=[[0,0.5],[1,0.5]];portConstraint=eastwest;" vertex="1" parent="Y7ZEs3ahHHyJpvBGkON9-1">
          <mxGeometry y="160" width="760" height="80" as="geometry" />
        </mxCell>
        <mxCell id="Y7ZEs3ahHHyJpvBGkON9-9" value="" style="shape=partialRectangle;html=1;whiteSpace=wrap;connectable=0;fillColor=none;top=0;left=0;bottom=0;right=0;overflow=hidden;" vertex="1" parent="Y7ZEs3ahHHyJpvBGkON9-8">
          <mxGeometry width="160" height="80" as="geometry" />
        </mxCell>
        <mxCell id="Y7ZEs3ahHHyJpvBGkON9-10" value="Người dùng điền vào lần lượt tất cả các trườnng" style="shape=partialRectangle;html=1;whiteSpace=wrap;connectable=0;fillColor=none;top=0;left=0;bottom=0;right=0;align=left;spacingLeft=6;overflow=hidden;" vertex="1" parent="Y7ZEs3ahHHyJpvBGkON9-8">
          <mxGeometry x="160" width="267" height="80" as="geometry" />
        </mxCell>
        <mxCell id="Y7ZEs3ahHHyJpvBGkON9-13" value="Hệ thống kiểm tra tên sản phẩm đã được dùng hay chưa" style="shape=partialRectangle;html=1;whiteSpace=wrap;connectable=0;fillColor=none;top=0;left=0;bottom=0;right=0;align=left;spacingLeft=6;overflow=hidden;" vertex="1" parent="Y7ZEs3ahHHyJpvBGkON9-8">
          <mxGeometry x="427" width="333" height="80" as="geometry" />
        </mxCell>
        <mxCell id="Y7ZEs3ahHHyJpvBGkON9-21" style="shape=partialRectangle;html=1;whiteSpace=wrap;collapsible=0;dropTarget=0;pointerEvents=0;fillColor=none;top=0;left=0;bottom=0;right=0;points=[[0,0.5],[1,0.5]];portConstraint=eastwest;" vertex="1" parent="Y7ZEs3ahHHyJpvBGkON9-1">
          <mxGeometry y="240" width="760" height="80" as="geometry" />
        </mxCell>
        <mxCell id="Y7ZEs3ahHHyJpvBGkON9-22" style="shape=partialRectangle;html=1;whiteSpace=wrap;connectable=0;fillColor=none;top=0;left=0;bottom=0;right=0;overflow=hidden;" vertex="1" parent="Y7ZEs3ahHHyJpvBGkON9-21">
          <mxGeometry width="160" height="80" as="geometry" />
        </mxCell>
        <mxCell id="Y7ZEs3ahHHyJpvBGkON9-23" style="shape=partialRectangle;html=1;whiteSpace=wrap;connectable=0;fillColor=none;top=0;left=0;bottom=0;right=0;align=left;spacingLeft=6;overflow=hidden;" vertex="1" parent="Y7ZEs3ahHHyJpvBGkON9-21">
          <mxGeometry x="160" width="267" height="80" as="geometry" />
        </mxCell>
        <mxCell id="Y7ZEs3ahHHyJpvBGkON9-24" value="Hệ thống kiểm tra kích thước ảnh up lên có lớn hơn 1MB hay không" style="shape=partialRectangle;html=1;whiteSpace=wrap;connectable=0;fillColor=none;top=0;left=0;bottom=0;right=0;align=left;spacingLeft=6;overflow=hidden;" vertex="1" parent="Y7ZEs3ahHHyJpvBGkON9-21">
          <mxGeometry x="427" width="333" height="80" as="geometry" />
        </mxCell>
        <mxCell id="Y7ZEs3ahHHyJpvBGkON9-25" style="shape=partialRectangle;html=1;whiteSpace=wrap;collapsible=0;dropTarget=0;pointerEvents=0;fillColor=none;top=0;left=0;bottom=0;right=0;points=[[0,0.5],[1,0.5]];portConstraint=eastwest;" vertex="1" parent="Y7ZEs3ahHHyJpvBGkON9-1">
          <mxGeometry y="320" width="760" height="80" as="geometry" />
        </mxCell>
        <mxCell id="Y7ZEs3ahHHyJpvBGkON9-26" style="shape=partialRectangle;html=1;whiteSpace=wrap;connectable=0;fillColor=none;top=0;left=0;bottom=0;right=0;overflow=hidden;" vertex="1" parent="Y7ZEs3ahHHyJpvBGkON9-25">
          <mxGeometry width="160" height="80" as="geometry" />
        </mxCell>
        <mxCell id="Y7ZEs3ahHHyJpvBGkON9-27" style="shape=partialRectangle;html=1;whiteSpace=wrap;connectable=0;fillColor=none;top=0;left=0;bottom=0;right=0;align=left;spacingLeft=6;overflow=hidden;" vertex="1" parent="Y7ZEs3ahHHyJpvBGkON9-25">
          <mxGeometry x="160" width="267" height="80" as="geometry" />
        </mxCell>
        <mxCell id="Y7ZEs3ahHHyJpvBGkON9-28" value="Hệ thống kiểm tra seller sku đã được dùng hay chưa" style="shape=partialRectangle;html=1;whiteSpace=wrap;connectable=0;fillColor=none;top=0;left=0;bottom=0;right=0;align=left;spacingLeft=6;overflow=hidden;" vertex="1" parent="Y7ZEs3ahHHyJpvBGkON9-25">
          <mxGeometry x="427" width="333" height="80" as="geometry" />
        </mxCell>
        <mxCell id="Y7ZEs3ahHHyJpvBGkON9-29" style="shape=partialRectangle;html=1;whiteSpace=wrap;collapsible=0;dropTarget=0;pointerEvents=0;fillColor=none;top=0;left=0;bottom=0;right=0;points=[[0,0.5],[1,0.5]];portConstraint=eastwest;" vertex="1" parent="Y7ZEs3ahHHyJpvBGkON9-1">
          <mxGeometry y="400" width="760" height="80" as="geometry" />
        </mxCell>
        <mxCell id="Y7ZEs3ahHHyJpvBGkON9-30" style="shape=partialRectangle;html=1;whiteSpace=wrap;connectable=0;fillColor=none;top=0;left=0;bottom=0;right=0;overflow=hidden;" vertex="1" parent="Y7ZEs3ahHHyJpvBGkON9-29">
          <mxGeometry width="160" height="80" as="geometry" />
        </mxCell>
        <mxCell id="Y7ZEs3ahHHyJpvBGkON9-31" value="Người dùng submit tạo mới sản phẩm" style="shape=partialRectangle;html=1;whiteSpace=wrap;connectable=0;fillColor=none;top=0;left=0;bottom=0;right=0;align=left;spacingLeft=6;overflow=hidden;" vertex="1" parent="Y7ZEs3ahHHyJpvBGkON9-29">
          <mxGeometry x="160" width="267" height="80" as="geometry" />
        </mxCell>
        <mxCell id="Y7ZEs3ahHHyJpvBGkON9-32" value="Hệ thống kiểm tra tên sản phẩm và seller sku thêm lần nữa" style="shape=partialRectangle;html=1;whiteSpace=wrap;connectable=0;fillColor=none;top=0;left=0;bottom=0;right=0;align=left;spacingLeft=6;overflow=hidden;" vertex="1" parent="Y7ZEs3ahHHyJpvBGkON9-29">
          <mxGeometry x="427" width="333" height="80" as="geometry" />
        </mxCell>
        <mxCell id="Y7ZEs3ahHHyJpvBGkON9-53" style="shape=partialRectangle;html=1;whiteSpace=wrap;collapsible=0;dropTarget=0;pointerEvents=0;fillColor=none;top=0;left=0;bottom=0;right=0;points=[[0,0.5],[1,0.5]];portConstraint=eastwest;" vertex="1" parent="Y7ZEs3ahHHyJpvBGkON9-1">
          <mxGeometry y="480" width="760" height="80" as="geometry" />
        </mxCell>
        <mxCell id="Y7ZEs3ahHHyJpvBGkON9-54" style="shape=partialRectangle;html=1;whiteSpace=wrap;connectable=0;fillColor=none;top=0;left=0;bottom=0;right=0;overflow=hidden;" vertex="1" parent="Y7ZEs3ahHHyJpvBGkON9-53">
          <mxGeometry width="160" height="80" as="geometry" />
        </mxCell>
        <mxCell id="Y7ZEs3ahHHyJpvBGkON9-55" style="shape=partialRectangle;html=1;whiteSpace=wrap;connectable=0;fillColor=none;top=0;left=0;bottom=0;right=0;align=left;spacingLeft=6;overflow=hidden;" vertex="1" parent="Y7ZEs3ahHHyJpvBGkON9-53">
          <mxGeometry x="160" width="267" height="80" as="geometry" />
        </mxCell>
        <mxCell id="Y7ZEs3ahHHyJpvBGkON9-56" value="Hệ thống đưa ra thông báo tạo sản phẩm thành công" style="shape=partialRectangle;html=1;whiteSpace=wrap;connectable=0;fillColor=none;top=0;left=0;bottom=0;right=0;align=left;spacingLeft=6;overflow=hidden;" vertex="1" parent="Y7ZEs3ahHHyJpvBGkON9-53">
          <mxGeometry x="427" width="333" height="80" as="geometry" />
        </mxCell>
        <mxCell id="Y7ZEs3ahHHyJpvBGkON9-75" value="" style="shape=table;html=1;whiteSpace=wrap;startSize=0;container=1;collapsible=0;childLayout=tableLayout;" vertex="1" parent="1">
          <mxGeometry x="40" y="640" width="760" height="80" as="geometry" />
        </mxCell>
        <mxCell id="Y7ZEs3ahHHyJpvBGkON9-76" value="" style="shape=partialRectangle;html=1;whiteSpace=wrap;collapsible=0;dropTarget=0;pointerEvents=0;fillColor=none;top=0;left=0;bottom=0;right=0;points=[[0,0.5],[1,0.5]];portConstraint=eastwest;" vertex="1" parent="Y7ZEs3ahHHyJpvBGkON9-75">
          <mxGeometry width="760" height="80" as="geometry" />
        </mxCell>
        <mxCell id="Y7ZEs3ahHHyJpvBGkON9-77" value="Alternative flow" style="shape=partialRectangle;html=1;whiteSpace=wrap;connectable=0;fillColor=none;top=0;left=0;bottom=0;right=0;overflow=hidden;" vertex="1" parent="Y7ZEs3ahHHyJpvBGkON9-76">
          <mxGeometry width="232" height="80" as="geometry" />
        </mxCell>
        <mxCell id="Y7ZEs3ahHHyJpvBGkON9-88" value="-Trong lúc người dùng điền form, nếu tên sản phẩm đã được sử dụng hệ thống hiển thị thông báo, và ngăn submit.&lt;br&gt;-Nếu người dùng tải lên hình ảnh hơn 1MB hệ thống hiển thị thông báo và không tải lên hình ảnh&lt;br&gt;-Sau khi submit, nếu tên sản phẩm, sku đã có hệ thống hiển thị thông báo tại sản phẩm thất bại" style="shape=partialRectangle;html=1;whiteSpace=wrap;connectable=0;fillColor=none;top=0;left=0;bottom=0;right=0;overflow=hidden;" vertex="1" parent="Y7ZEs3ahHHyJpvBGkON9-76">
          <mxGeometry x="232" width="528" height="80" as="geometry" />
        </mxCell>
      </root>
    </mxGraphModel>
  </diagram>
</mxfile>
